<?xml version="1.0" encoding="UTF-8" standalone="no"?>
<!-- Created with Inkscape (http://www.inkscape.org/) -->

<svg
   width="32"
   height="32"
   viewBox="0 0 8.4666656 8.4666662"
   version="1.1"
   id="svg1"
   inkscape:version="1.4.2 (f4327f4, 2025-05-13)"
   sodipodi:docname="favicon.svg"
   xmlns:inkscape="http://www.inkscape.org/namespaces/inkscape"
   xmlns:sodipodi="http://sodipodi.sourceforge.net/DTD/sodipodi-0.dtd"
   xmlns="http://www.w3.org/2000/svg"
   xmlns:svg="http://www.w3.org/2000/svg">
  <sodipodi:namedview
     id="namedview1"
     pagecolor="#ffffff"
     bordercolor="#000000"
     borderopacity="0.25"
     inkscape:showpageshadow="2"
     inkscape:pageopacity="0.0"
     inkscape:pagecheckerboard="0"
     inkscape:deskcolor="#d1d1d1"
     inkscape:document-units="mm"
     inkscape:zoom="43.445119"
     inkscape:cx="21.440844"
     inkscape:cy="21.061054"
     inkscape:window-width="3200"
     inkscape:window-height="1711"
     inkscape:window-x="-9"
     inkscape:window-y="-9"
     inkscape:window-maximized="1"
     inkscape:current-layer="layer1"
     showgrid="true">
    <inkscape:grid
       id="grid1"
       units="mm"
       originx="0"
       originy="0"
       spacingx="0.99999987"
       spacingy="0.99999994"
       empcolor="#0099e5"
       empopacity="0.30196078"
       color="#0099e5"
       opacity="0.14901961"
       empspacing="5"
       enabled="true"
       visible="true" />
  </sodipodi:namedview>
  <defs
     id="defs1" />
  <g
     inkscape:label="Layer 1"
     inkscape:groupmode="layer"
     id="layer1">
    <g
       id="text1"
       style="font-size:6.18703px;line-height:0;font-family:Calibri;-inkscape-font-specification:Calibri;letter-spacing:-0.0295559px;word-spacing:0px;fill:#b4daff;fill-opacity:0.1;stroke-width:0.076845;stroke-miterlimit:0;paint-order:markers fill stroke"
       aria-label="xts">
      <path
         style="font-weight:500;font-family:Inter;-inkscape-font-specification:'Inter Medium';fill:#004488;fill-opacity:1"
         d="M 0.26458168,6.2256899 1.5847633,4.3979784 1.5757003,4.7937308 0.33708594,3.0355026 H 1.0651495 l 0.3806474,0.56795 Q 1.5726793,3.7967973 1.6904987,3.9841 1.8113391,4.1714026 1.9321796,4.3617263 H 1.6663306 Q 1.7932131,4.1714026 1.9110325,3.9841 2.0318729,3.7967973 2.1617764,3.6034526 l 0.3866893,-0.56795 H 3.2644453 L 2.0137469,4.7937308 2.0197889,4.3949574 3.3188235,6.2256899 H 2.5907599 L 2.1466713,5.5791936 Q 2.0228099,5.3918909 1.9049905,5.2136513 1.7901921,5.0323907 1.6693516,4.848109 H 1.9231165 Q 1.8022761,5.0323907 1.6814357,5.2136513 1.5636163,5.3918909 1.4397548,5.5791936 L 0.98660323,6.2256899 Z"
         id="path1" />
      <path
         style="font-weight:500;font-family:Inter;-inkscape-font-specification:'Inter Medium';fill:#cc9a2a;fill-opacity:1"
         d="M 5.2589665,3.0355026 V 3.5611585 H 3.410108 V 3.0355026 Z M 3.972016,2.1654516 h 0.6374333 v 3.2173763 q 0,0.1752186 0.072504,0.2477229 0.075525,0.069483 0.265849,0.069483 0.072504,0 0.1601135,0 0.087609,0 0.1510505,0 v 0.5256559 q -0.078546,0 -0.1903236,0 -0.1087564,0 -0.2114708,0 -0.4501306,0 -0.6676433,-0.1873027 Q 3.972016,5.8480636 3.972016,5.4643952 Z"
         id="path2" />
      <path
         style="font-weight:500;font-family:Inter;-inkscape-font-specification:'Inter Medium';fill:#bb5566;fill-opacity:1"
         d="m 6.9151344,6.3012152 q -0.3655422,0 -0.6585803,-0.1178195 Q 5.9635161,6.0655763 5.7852765,5.8329585 5.6070368,5.6003407 5.5828687,5.2559455 H 6.211239 q 0.027189,0.2567859 0.2024077,0.3987734 0.1782396,0.1389665 0.4894037,0.1389665 0.3051221,0 0.4803407,-0.1238615 0.1752186,-0.1238614 0.1752186,-0.3141851 0,-0.1631346 -0.1268824,-0.2598069 Q 7.3078658,4.9961385 7.0994161,4.9508234 L 6.5707392,4.833004 Q 6.1206086,4.7333106 5.8879908,4.5037138 5.655373,4.274117 5.655373,3.9206588 5.655373,3.6366837 5.8064235,3.422192 5.9604951,3.2077002 6.235407,3.0868598 6.510319,2.9660194 6.8758613,2.9660194 q 0.3595003,0 0.6374333,0.1268824 0.2809539,0.1268825 0.4410675,0.3595003 0.1631346,0.2326178 0.1721976,0.555866 H 7.5163156 Q 7.5132946,3.7756502 7.3410969,3.6245997 7.1688993,3.4705282 6.8849243,3.4705282 q -0.2718909,0 -0.4320045,0.1268824 -0.1601136,0.1268825 -0.1601136,0.3111641 0,0.1631346 0.1208405,0.2628279 0.1238614,0.099693 0.3383532,0.1480296 l 0.5437819,0.1208404 q 0.4682566,0.1027143 0.6857694,0.3172061 0.2205338,0.2144918 0.2205338,0.561908 0,0.3051221 -0.1691766,0.5256558 Q 7.8667528,6.0625553 7.5767358,6.1833957 7.2867188,6.3012152 6.9151344,6.3012152 Z"
         id="path3" />
    </g>
  </g>
</svg>
