<?xml version="1.0" encoding="UTF-8" standalone="no"?>
<!-- Created with Inkscape (http://www.inkscape.org/) -->

<svg
   width="160mm"
   height="30mm"
   viewBox="0 0 159.99999 30"
   version="1.1"
   id="svg1"
   inkscape:version="1.4.2 (f4327f4, 2025-05-13)"
   sodipodi:docname="xaitimesynth_logo_source.svg"
   xmlns:inkscape="http://www.inkscape.org/namespaces/inkscape"
   xmlns:sodipodi="http://sodipodi.sourceforge.net/DTD/sodipodi-0.dtd"
   xmlns="http://www.w3.org/2000/svg"
   xmlns:svg="http://www.w3.org/2000/svg">
  <sodipodi:namedview
     id="namedview1"
     pagecolor="#ffffff"
     bordercolor="#000000"
     borderopacity="0.25"
     inkscape:showpageshadow="2"
     inkscape:pageopacity="0.0"
     inkscape:pagecheckerboard="0"
     inkscape:deskcolor="#d1d1d1"
     inkscape:document-units="mm"
     inkscape:zoom="1.9200211"
     inkscape:cx="563.01465"
     inkscape:cy="195.31035"
     inkscape:window-width="3200"
     inkscape:window-height="1711"
     inkscape:window-x="-9"
     inkscape:window-y="-9"
     inkscape:window-maximized="1"
     inkscape:current-layer="layer1" />
  <defs
     id="defs1" />
  <g
     inkscape:label="Layer 1"
     inkscape:groupmode="layer"
     id="layer1">
    <g
       id="text1"
       style="font-size:27.6931px;line-height:0;font-family:Calibri;-inkscape-font-specification:Calibri;letter-spacing:-0.132292px;word-spacing:0px;fill:#b4daff;fill-opacity:0.1;stroke-width:0.343958;stroke-miterlimit:0;paint-order:markers fill stroke"
       aria-label="xaitimesynth">
      <path
         style="font-weight:500;font-family:Inter;-inkscape-font-specification:'Inter Medium';fill:#004488;fill-opacity:1"
         d="M 0.61596116,22.29513 6.5250845,14.114307 6.4845185,15.885692 0.94048968,8.0158751 H 4.1992969 l 1.7037747,2.5421399 q 0.5679249,0.86541 1.0952837,1.703775 0.5408809,0.838365 1.0817617,1.690253 H 6.8901791 Q 7.458104,13.100155 7.9854629,12.26179 8.5263437,11.423425 9.1077906,10.558015 L 10.838609,8.0158751 h 3.204719 L 8.4452116,15.885692 8.4722556,14.100785 14.286725,22.29513 H 11.027918 L 9.0401805,19.401417 Q 8.4857777,18.563052 7.9584188,17.765253 7.444582,16.953931 6.9037011,16.129088 H 8.039551 Q 7.4986701,16.953931 6.9577892,17.765253 6.4304304,18.563052 5.8760275,19.401417 L 3.8477243,22.29513 Z M 20.176593,22.525004 q -1.419813,0 -2.54214,-0.486793 -1.108806,-0.486792 -1.757863,-1.446856 -0.649057,-0.960063 -0.649057,-2.379876 0,-1.216982 0.459748,-2.001259 0.473271,-0.784277 1.27107,-1.244026 0.7978,-0.459749 1.811951,-0.689623 1.014152,-0.243396 2.095914,-0.365095 1.352202,-0.175786 2.122957,-0.27044 0.784277,-0.108176 1.108806,-0.324528 0.33805,-0.229875 0.33805,-0.743712 v -0.121698 q 0,-0.689623 -0.33805,-1.216982 -0.338051,-0.540881 -0.987108,-0.851887 -0.649057,-0.311007 -1.555032,-0.311007 -0.905976,0 -1.609121,0.297485 -0.689623,0.297484 -1.108806,0.824843 -0.40566,0.513837 -0.459748,1.176416 h -2.799059 q 0.06761,-1.365724 0.824844,-2.4069198 0.757233,-1.0411957 2.082391,-1.6361646 1.325158,-0.5949689 3.110065,-0.5949689 1.311636,0 2.366354,0.3380505 1.054717,0.3380505 1.784906,0.9735855 0.743712,0.622013 1.122328,1.5009443 0.392139,0.878932 0.392139,1.960693 v 9.789944 h -2.812581 v -2.028303 h -0.05409 q -0.297484,0.581446 -0.811321,1.095283 -0.513837,0.513837 -1.352202,0.838366 -0.824843,0.324528 -2.055347,0.324528 z m 0.581446,-2.298744 q 1.257548,0 2.06887,-0.446226 0.824843,-0.459749 1.216982,-1.20346 0.40566,-0.743711 0.40566,-1.622643 v -1.67673 q -0.148742,0.121698 -0.486792,0.229874 -0.324529,0.09465 -0.7978,0.189308 -0.47327,0.08113 -1.027673,0.175787 -0.554403,0.09465 -1.108806,0.162264 -0.784277,0.108176 -1.460378,0.365094 -0.676101,0.243397 -1.095284,0.689624 -0.405661,0.446226 -0.405661,1.176415 0,0.608491 0.324529,1.054718 0.324528,0.432705 0.933019,0.676101 0.608491,0.229874 1.433334,0.229874 z"
         id="path12" />
      <path
         style="font-weight:500;font-family:Inter;-inkscape-font-specification:'Inter Medium';letter-spacing:2.64583px;fill:#004488;fill-opacity:1"
         d="M 30.34808,22.29513 V 8.0158751 h 2.853147 V 22.29513 Z M 31.767892,5.5548672 q -0.757233,0 -1.284592,-0.5003148 -0.513836,-0.5138368 -0.513836,-1.244026 0,-0.7437112 0.513836,-1.244026 0.527359,-0.5138368 1.284592,-0.5138368 0.757234,0 1.284592,0.5138368 0.527359,0.5003148 0.527359,1.244026 0,0.7301892 -0.527359,1.244026 -0.527358,0.5003148 -1.284592,0.5003148 z"
         id="path13" />
      <path
         style="font-weight:500;font-family:Inter;-inkscape-font-specification:'Inter Medium';fill:#cc9a2a;fill-opacity:1"
         d="M 45.948007,8.0158751 V 10.368707 H 37.67253 V 8.0158751 Z M 40.187626,4.1215329 h 2.853147 V 18.522486 q 0,0.784277 0.324528,1.108806 0.338051,0.311006 1.189938,0.311006 0.324529,0 0.716667,0 0.392139,0 0.676101,0 v 2.352832 q -0.351572,0 -0.851887,0 -0.486793,0 -0.946541,0 -2.014782,0 -2.988367,-0.838366 -0.973586,-0.851887 -0.973586,-2.569184 z M 48.073893,22.29513 V 8.0158751 H 50.92704 V 22.29513 Z M 49.493705,5.5548672 q -0.757233,0 -1.284592,-0.5003148 -0.513837,-0.5138368 -0.513837,-1.244026 0,-0.7437112 0.513837,-1.244026 0.527359,-0.5138368 1.284592,-0.5138368 0.757234,0 1.284592,0.5138368 0.527359,0.5003148 0.527359,1.244026 0,0.7301892 -0.527359,1.244026 -0.527358,0.5003148 -1.284592,0.5003148 z M 54.012988,22.29513 V 8.0158751 h 2.772014 v 3.0154109 h -0.27044 q 0.40566,-1.0817618 1.081761,-1.811951 0.689623,-0.7437112 1.582077,-1.1088057 0.892453,-0.3786166 1.866039,-0.3786166 1.663208,0 2.839624,0.9600635 1.189938,0.9465415 1.460379,2.3393098 h -0.446227 q 0.297484,-0.946542 0.960063,-1.6902528 0.676101,-0.7437112 1.649687,-1.1764159 0.973586,-0.4327046 2.163523,-0.4327046 1.338681,0 2.420442,0.5814469 1.081762,0.5814469 1.717297,1.7308184 0.635535,1.13585 0.635535,2.853147 v 9.397805 h -2.866669 v -9.154409 q 0,-1.527988 -0.851887,-2.217611 -0.851887,-0.689623 -2.014781,-0.689623 -0.946542,0 -1.636165,0.40566 -0.689623,0.405661 -1.068239,1.108806 -0.378617,0.703145 -0.378617,1.622643 v 8.924534 h -2.81258 v -9.343717 q 0,-1.230504 -0.7978,-1.974215 -0.784277,-0.743711 -2.001259,-0.743711 -0.824843,0 -1.555032,0.392138 -0.716667,0.392139 -1.162894,1.162894 -0.432705,0.757233 -0.432705,1.893083 v 8.613528 z"
         id="path14" />
      <path
         style="font-weight:500;font-family:Inter;-inkscape-font-specification:'Inter Medium';letter-spacing:2.64583px;fill:#cc9a2a;fill-opacity:1"
         d="m 83.629142,22.619658 q -2.122957,0 -3.650945,-0.960063 -1.514467,-0.960064 -2.33931,-2.636794 -0.811321,-1.690253 -0.811321,-3.840255 0,-2.190567 0.851887,-3.867298 0.851887,-1.6902523 2.352832,-2.6503159 1.500944,-0.9735855 3.448115,-0.9735855 1.514467,0 2.731448,0.5408808 1.230504,0.5408809 2.109436,1.5415105 0.878931,0.9871071 1.352202,2.3528321 0.473271,1.365724 0.473271,3.028932 v 0.770756 H 78.112158 v -2.163524 h 10.533654 l -1.257548,0.662579 q 0,-1.325158 -0.47327,-2.298743 -0.473271,-0.987108 -1.352203,-1.514467 -0.865409,-0.540881 -2.055347,-0.540881 -1.176416,0 -2.041825,0.540881 -0.865409,0.527359 -1.352202,1.514467 -0.473271,0.973585 -0.473271,2.298743 v 1.230504 q 0,1.352202 0.473271,2.393398 0.473271,1.027674 1.365724,1.609121 0.905975,0.581447 2.190567,0.581447 0.93302,0 1.649687,-0.283963 0.716667,-0.297484 1.189938,-0.811321 0.473271,-0.513837 0.676101,-1.189938 h 2.74497 q -0.256918,1.379246 -1.149371,2.433964 -0.878932,1.041195 -2.217612,1.636164 -1.325158,0.594969 -2.934279,0.594969 z"
         id="path15" />
      <path
         style="font-weight:500;font-family:Inter;-inkscape-font-specification:'Inter Medium';fill:#bb5566;fill-opacity:1"
         d="m 100.54071,22.63318 q -1.636168,0 -2.947804,-0.527359 -1.311637,-0.527358 -2.109436,-1.568554 -0.797799,-1.041196 -0.905975,-2.582706 h 2.81258 q 0.121698,1.149372 0.905976,1.784907 0.797799,0.622013 2.190569,0.622013 1.36572,0 2.15,-0.554403 0.78428,-0.554403 0.78428,-1.40629 0,-0.73019 -0.56793,-1.162894 -0.5544,-0.446227 -1.48742,-0.649057 l -2.366354,-0.527359 q -2.014781,-0.446227 -3.055977,-1.4739 -1.041196,-1.027674 -1.041196,-2.609751 0,-1.27107 0.676101,-2.2311332 0.689623,-0.9600635 1.920127,-1.5009443 1.230504,-0.5408809 2.866669,-0.5408809 1.60912,0 2.85315,0.5679249 1.25754,0.5679249 1.97421,1.6091206 0.73019,1.0411959 0.77076,2.4880519 h -2.73145 q -0.0135,-1.041196 -0.78428,-1.717297 -0.77075,-0.6896228 -2.04182,-0.6896228 -1.216986,0 -1.933653,0.5679248 -0.716667,0.567925 -0.716667,1.392768 0,0.730189 0.540881,1.176416 0.554403,0.446227 1.514466,0.662579 l 2.433963,0.540881 q 2.09591,0.459749 3.0695,1.419812 0.98711,0.960064 0.98711,2.515096 0,1.365725 -0.75724,2.352832 -0.74371,0.973586 -2.04182,1.514466 -1.29812,0.527359 -2.96132,0.527359 z m 7.95118,5.314155 v -2.40692 h 1.54151 q 0.45975,0 0.78428,-0.175786 0.32453,-0.162265 0.58145,-0.527359 0.27044,-0.365095 0.48679,-0.93302 l 0.64906,-1.703774 -5.51699,-14.1846009 h 3.05598 l 2.85315,7.8292509 q 0.39213,1.108805 0.75723,2.217611 0.37862,1.095284 0.71667,2.20409 h -0.77076 q 0.33805,-1.108806 0.70315,-2.20409 0.37861,-1.108806 0.77075,-2.217611 l 2.81258,-7.8292509 h 3.01541 l -6.49057,16.7808289 q -0.40566,1.041195 -1.00063,1.730818 -0.59497,0.703146 -1.37924,1.054718 -0.78428,0.365095 -1.75787,0.365095 -0.44622,0 -0.90597,0 -0.45975,0 -0.90598,0 z m 17.09476,-13.873594 v 8.221389 h -2.85314 V 8.0158751 h 2.79906 v 3.5427699 h -0.66258 q 0.70314,-1.9201273 1.94717,-2.8666688 1.25755,-0.9600635 3.02893,-0.9600635 1.4739,0 2.6368,0.649057 1.17641,0.635535 1.85251,1.8930833 0.6761,1.257548 0.6761,3.123587 v 8.89749 h -2.85314 v -8.545918 q 0,-1.717297 -0.82485,-2.582706 -0.81132,-0.878931 -2.29874,-0.878931 -0.97359,0 -1.75786,0.392138 -0.77076,0.392139 -1.23051,1.230504 -0.45975,0.838366 -0.45975,2.163524 z m 19.39351,-6.0578659 v 2.3528319 h -8.27548 V 8.0158751 Z m -5.76038,-3.8943422 h 2.85315 V 18.522486 q 0,0.784277 0.32453,1.108806 0.33805,0.311006 1.18993,0.311006 0.32453,0 0.71667,0 0.39214,0 0.6761,0 v 2.352832 q -0.35157,0 -0.85189,0 -0.48679,0 -0.94654,0 -2.01478,0 -2.98836,-0.838366 -0.97359,-0.851887 -0.97359,-2.569184 z m 10.73941,9.9522081 v 8.221389 h -2.85315 V 2.1473178 h 2.85315 v 9.4113272 h -0.71667 q 0.70315,-1.9201273 1.94717,-2.8666688 1.25755,-0.9600635 3.02894,-0.9600635 1.4739,0 2.63679,0.649057 1.17642,0.635535 1.85252,1.8930833 0.6761,1.257548 0.6761,3.123587 v 8.89749 h -2.85315 v -8.545918 q 0,-1.717297 -0.82484,-2.582706 -0.81132,-0.878931 -2.29874,-0.878931 -0.97359,0 -1.75787,0.392138 -0.77075,0.392139 -1.2305,1.230504 -0.45975,0.838366 -0.45975,2.163524 z"
         id="path16" />
    </g>
  </g>
</svg>
